<svg xmlns="http://www.w3.org/2000/svg" style="display: none;">
  <defs>
    <symbol id="send" width="24" height="24" viewBox="0 0 24 24">
      <path d="M2.01 21 23 12 2.01 3 2 10l15 2-15 2 .01 7Z"/>
    </symbol>
    <symbol id="arrow-right" width="24" height="24" viewBox="0 0 24 24">
      <path d="m14.2 4.8 6.5 6.5.71.7-.7.7-6.5 6.5-1.42-1.4 4.8-4.8H3v-2h14.59l-4.8-4.8 1.42-1.4Z"/>
    </symbol>
    <symbol id="chevron-right" width="24" height="24" viewBox="0 0 24 24">
      <path d="m13.59 12-5.8-5.8 1.42-1.4 6.5 6.5.7.7-.7.7-6.5 6.5-1.42-1.4 5.8-5.8Z"/>
    </symbol>
    <symbol id="github" width="24" height="24" viewBox="0 0 24 24">
      <path d="M12 2a10 10 0 0 0-3.16 19.5c.5.08.66-.23.66-.5v-1.69c-2.77.6-3.36-1.34-3.36-1.34-.46-1.16-1.11-1.47-1.11-1.47-.91-.62.07-.6.07-.6 1 .07 1.53 1.03 1.53 1.03.87 1.52 2.34 1.07 2.91.83.09-.65.35-1.09.63-1.34-2.22-.25-4.55-1.11-4.55-4.92 0-1.11.38-2 1.03-2.71-.1-.25-.45-1.29.1-2.64 0 0 .84-.27 2.75 1.02a9.42 9.42 0 0 1 5 0c1.91-1.29 2.75-1.02 2.75-1.02.55 1.35.2 2.39.1 2.64.65.71 1.03 1.6 1.03 2.71 0 3.82-2.34 4.66-4.57 4.91.36.31.69.92.69 1.85V21c0 .27.16.59.67.5a10.03 10.03 0 0 0 3.9-16.57A10 10 0 0 0 12 2Z"/>
    </symbol>
    <symbol id="menu" width="24" height="24" viewBox="0 0 24 24">
      <path d="M22 6H2V4h20v2ZM2 13h16v-2H2v2Zm0 7h20v-2H2v2Z"/>
    </symbol>
    <symbol id="figma" width="24" height="24" viewBox="0 0 24 24">
      <path fill-rule="evenodd" d="M15 10a2 2 0 1 0 0 4 2 2 0 0 0 0-4Zm-2 5.46A4 4 0 0 0 17.65 9a4.01 4.01 0 0 0 .18-5.83A4 4 0 0 0 15 2H9a4 4 0 0 0-2.65 7 4.01 4.01 0 0 0 0 6A3.98 3.98 0 0 0 5 18a4 4 0 1 0 8 0v-2.54ZM11 16H9a2 2 0 1 0 2 2v-2ZM9 8h2V4H9a2 2 0 1 0 0 4Zm0 2a2 2 0 1 0 0 4h2v-4H9Zm4-2V4h2a2 2 0 0 1 0 4h-2Z"/>
    </symbol>
    <symbol id="linkedin" width="24" height="24" viewBox="0 0 24 24">
      <path d="M20.447 20.452h-3.554v-5.569c0-1.328-.027-3.037-1.852-3.037-1.853 0-2.136 1.445-2.136 2.939v5.667H9.351V9h3.414v1.561h.046c.477-.9 1.637-1.85 3.37-1.85 3.601 0 4.267 2.37 4.267 5.455v6.286zM5.337 7.433a2.062 2.062 0 0 1-2.063-2.065 2.064 2.064 0 1 1 2.063 2.065zm1.782 13.019H3.555V9h3.564v11.452zM22.225 0H1.771C.792 0 0 .774 0 1.729v20.542C0 23.227.792 24 1.771 24h20.451C23.2 24 24 23.227 24 22.271V1.729C24 .774 23.2 0 22.222 0h.003z"/>
    </symbol>
    <symbol id="copy" width="24" height="24" viewBox="0 0 24 24">
      <path d="M3 2h12v4H7v10H3V2Zm6 20V8h12v11l-3 3H9Z"/>
    </symbol>
    <symbol id="error" width="24" height="24" viewBox="0 0 24 24">
      <path d="M19.7 19H4.3L12 5.07 19.7 19ZM11.12 2.52l-9.39 17L2.61 21h18.78l.88-1.48-9.4-17h-1.75ZM11 14v-4h2v4h-2Zm0 3v-2h2v2h-2Z"/>
    </symbol>
    <symbol id="arrow-left" width="24" height="24" viewBox="0 0 24 24">
      <path d="m9.8 19.2-6.5-6.5-.71-.7.7-.7 6.5-6.5 1.42 1.4L6.4 11H21v2H6.41l4.8 4.8-1.42 1.4Z"/>
    </symbol>
    <symbol id="check" width="24" height="24" viewBox="0 0 24 24">
      <path d="m20.2 7.2-10 10-.7.71-.7-.7-5-5 1.4-1.42 4.3 4.3 9.3-9.3 1.4 1.42Z"/>
    </symbol>
    <symbol id="link" width="24" height="24" viewBox="0 0 24 24">
      <path d="M9 4 8 5v2h2V6h10v7H10v-2H8v3l1 1h12l1-1V5l-1-1H9Zm2 4H3L2 9v9l1 1h12l1-1v-2h-2v1H4v-7h10v2h2V9l-1-1h-4Z"/>
    </symbol>
    <symbol id="close" width="24" height="24" viewBox="0 0 24 24">
      <path d="M19 6.41 17.59 5 12 10.59 6.41 5 5 6.41 10.59 12 5 17.59 6.41 19 12 13.41 17.59 19 19 17.59 13.41 12 19 6.41Z"/>
    </symbol>
    <symbol id="pause" width="24" height="24" viewBox="0 0 24 24">
      <path d="M6 19h4V5H6v14Zm8-14v14h4V5h-4Z"/>
    </symbol>
    <symbol id="play" width="24" height="24" viewBox="0 0 24 24">
      <path d="M8 5v14l11-7L8 5Z"/>
    </symbol>
    <symbol id="bluesky" width="24" height="24" viewBox="0 0 24 24">
      <path d="M6.34 3.78C8.63 5.51 11.09 9.01 12 10.9v4.96c0-.1-.04.02-.13.27-.47 1.4-2.32 6.83-6.54 2.49-2.22-2.29-1.19-4.58 2.86-5.27-2.32.4-4.92-.26-5.63-2.82C2.35 9.8 2 5.25 2 4.64c0-3.07 2.68-2.1 4.34-.86Zm11.32 0C15.37 5.51 12.91 9.01 12 10.9v4.96c0-.1.04.02.13.27.47 1.4 2.32 6.83 6.54 2.49 2.22-2.29 1.19-4.58-2.86-5.27 2.32.4 4.92-.26 5.63-2.82.21-.73.56-5.27.56-5.88 0-3.07-2.68-2.1-4.34-.86Z"/>
    </symbol>
    <symbol id="x" width="24" height="24" viewBox="0 0 24 24">
      <path d="M18.901 1.153h3.68l-8.04 9.19L24 22.846h-7.406l-5.8-7.584-6.638 7.584H.474l8.6-9.83L0 1.154h7.594l5.243 6.932ZM17.61 20.644h2.039L6.486 3.24H4.298Z"/>
    </symbol>
    <symbol id="vscode" width="24" height="24" viewBox="0 0 24 24">
      <path d="M17.828.4l-7.382 7-4.14-4L0 6.6v10.8l6.307 3.2 4.14-4 7.382 7 6.17-.3V.7l-6.17-.3zM6.16 14.5l-3-2.3L6.16 9.9v4.6zM15 15.6l-3.2-2.3 3.2-2.3v4.6z"/>
    </symbol>
    <symbol id="notion" width="24" height="24" viewBox="0 0 24 24">
      <path d="M4.15 3.3a2.3 2.3 0 0 0-2.3 1.9l-.6 14.2A2.3 2.3 0 0 0 3.15 22l.4.1h16.9a2.3 2.3 0 0 0 2.3-1.9l.6-14.2a2.3 2.3 0 0 0-1.9-2.6l-17.3-.1zm12.9 3.1l2 7.7V18h-2.3v-1.6l-.8-.2a3.8 3.8 0 0 1-1.3-.9L14 18h-2.4L9.8 11l-1.6 7H6V6h2.4L11 13l1.8-7h4.2z"/>
    </symbol>
    <symbol id="chatgpt" width="24" height="24" viewBox="0 0 24 24">
      <path d="M22.2819 9.8211a5.9847 5.9847 0 0 0-.5153-4.9089 6.0462 6.0462 0 0 0-4.7471-3.1243 5.9847 5.9847 0 0 0-7.6923 3.1243 6.0462 6.0462 0 0 0-4.7471 3.1243 5.9847 5.9847 0 0 0-.5153 4.9089A5.9847 5.9847 0 0 0 .5845 13.9211a6.0462 6.0462 0 0 0 4.7471 3.1243 5.9847 5.9847 0 0 0 7.6923-3.1243 6.0462 6.0462 0 0 0 4.7471-3.1243 5.9847 5.9847 0 0 0 .5153-4.9089 5.9847 5.9847 0 0 0 3.9856-4.1211z"/>
    </symbol>
    <symbol id="vimeo" width="24" height="24" viewBox="0 0 24 24">
      <path d="M22.396 7.158c-.093 2.026-1.507 4.799-4.24 8.32-2.84 3.673-5.234 5.511-7.18 5.511-1.21 0-2.234-1.114-3.073-3.34-.56-2.046-1.119-4.093-1.677-6.14-.623-2.274-1.292-3.411-2.007-3.411-.156 0-.693.312-1.613.935L1.4 7.915c1.026-.903 2.042-1.806 3.048-2.709 1.433-1.246 2.508-1.9 3.224-1.962 1.683-.155 2.712.996 3.085 3.45.405 2.65.686 4.298.841 4.943.467 2.026.966 3.042 1.496 3.042.39 0 1-.561 1.838-1.682 2.15-2.866 2.4-4.832 1.558-5.891-.437-.561-1.2-.779-2.29-.654 1.028-3.365 3.036-5.04 6.022-5.025 2.213.015 3.25 1.511 3.111 4.482z"/>
    </symbol>
    <symbol id="discord" width="24" height="24" viewBox="0 0 24 24">
      <path d="M20.317 4.37a19.791 19.791 0 0 0-4.885-1.515.074.074 0 0 0-.079.037c-.21.375-.444.864-.608 1.25a18.27 18.27 0 0 0-5.487 0 12.64 12.64 0 0 0-.617-1.25.077.077 0 0 0-.079-.037 19.736 19.736 0 0 0-4.885 1.515.069.069 0 0 0-.032.027C.533 9.048-.32 13.58.099 18.057a.082.082 0 0 0 .031.057 19.9 19.9 0 0 0 5.993 3.03.078.078 0 0 0 .084-.028c.462-.63.862-1.295 1.196-1.995a.076.076 0 0 0-.041-.105 13.11 13.11 0 0 1-1.872-.892.077.077 0 0 1-.008-.128c.125-.094.249-.192.37-.292a.074.074 0 0 1 .077-.01c3.928 1.793 8.18 1.793 12.062 0a.074.074 0 0 1 .078.01c.12.098.246.198.37.292a.077.077 0 0 1-.006.127 12.299 12.299 0 0 1-1.873.892.077.077 0 0 0-.041.107c.36.698.772 1.362 1.225 1.993a.076.076 0 0 0 .084.028 19.839 19.839 0 0 0 6.002-3.03.077.077 0 0 0 .032-.054c.5-5.177-.838-9.674-3.549-13.66a.061.061 0 0 0-.031-.03zM8.02 15.33c-1.183 0-2.157-1.085-2.157-2.42s.955-2.42 2.157-2.42c1.21 0 2.176 1.085 2.176 2.42-.018 1.335-.956 2.42-2.176 2.42zm7.974 0c-1.183 0-2.157-1.085-2.157-2.42s.955-2.42 2.157-2.42c1.21 0 2.176 1.085 2.176 2.42-.018 1.335-.956 2.42-2.176 2.42z"/>
    </symbol>
    <symbol id="spotify" width="24" height="24" viewBox="0 0 24 24">
      <path d="M12 0C5.372 0 0 5.372 0 12s5.372 12 12 12 12-5.372 12-12S18.628 0 12 0zm5.503 17.306c-.216.353-.672.464-1.025.248-2.868-1.751-6.478-2.148-10.73-1.173-.404.093-.807-.159-.9-.562s.159-.807.562-.9c4.654-1.064 8.636-.61 11.845 1.347.353.216.464.672.248 1.025zm1.468-3.26c-.272.443-.847.583-1.29.311-3.282-2.016-8.286-2.599-12.167-1.42-.498.151-1.02-.132-1.171-.63s.132-1.02.63-1.171c4.434-1.345 9.947-.698 13.687 1.597.443.272.583.847.311 1.29zm.126-3.414c-3.937-2.338-10.435-2.553-14.218-1.405-.604.183-1.25-.17-1.433-.774s.17-1.25.774-1.433c4.35-1.32 11.522-1.066 16.05 1.62.544.323.722 1.03.4 1.574s-1.03.722-1.573.4z"/>
    </symbol>
  </defs>
</svg>
